<svg width="15" height="44" viewBox="0 0 15 44" fill="none" xmlns="http://www.w3.org/2000/svg">
<path d="M11.8538 16.0283H10.8333C10.7239 15.2173 10.3275 14.4723 9.71606 13.9284C9.10461 13.3845 8.31851 13.0776 7.50027 13.0635C6.68203 13.0776 5.89594 13.3845 5.28448 13.9284C4.67303 14.4723 4.27668 15.2173 4.16727 16.0283H3.14727C2.58606 16.0286 2.04793 16.2517 1.65102 16.6485C1.25411 17.0452 1.03086 17.5833 1.03027 18.1445V25.86C1.03078 26.4211 1.25388 26.9591 1.65062 27.356C2.04736 27.7528 2.58533 27.976 3.14647 27.9767H11.8535C12.4147 27.9762 12.9528 27.753 13.3497 27.3562C13.7466 26.9593 13.9698 26.4212 13.9703 25.86V18.1445C13.9697 17.5834 13.7465 17.0454 13.3497 16.6486C12.9529 16.2519 12.4149 16.0288 11.8538 16.0283ZM7.50027 14.1631C8.02768 14.1745 8.53539 14.3656 8.93946 14.7048C9.34352 15.0439 9.61975 15.5108 9.72247 16.0283H5.27807C5.3808 15.5108 5.65702 15.0439 6.06109 14.7048C6.46516 14.3656 6.97286 14.1745 7.50027 14.1631ZM12.8703 25.86C12.87 26.1296 12.7628 26.388 12.5722 26.5787C12.3817 26.7693 12.1233 26.8767 11.8537 26.8771H3.14677C2.87722 26.8766 2.61883 26.7693 2.42828 26.5786C2.23773 26.388 2.13056 26.1295 2.13027 25.86V18.1445C2.13059 17.875 2.2378 17.6166 2.42838 17.426C2.61896 17.2354 2.87735 17.1282 3.14687 17.1279H11.8539C12.1234 17.1282 12.3817 17.2355 12.5722 17.4261C12.7628 17.6166 12.87 17.875 12.8703 18.1445V25.86Z" fill="black" fill-opacity="0.8"/>
</svg>
