<svg width="68" height="15" viewBox="0 0 68 15" fill="none" xmlns="http://www.w3.org/2000/svg">
<path d="M20.71 11.291H15.8199L14.647 14.7596H12.5751L17.207 1.92843H19.358L23.9899 14.7596H21.8829L20.71 11.291ZM16.3273 9.69105H20.2025L18.2904 4.06227H18.2377L16.3273 9.69105ZM25.0821 5.40405H26.9134V6.99521H26.9573C27.2681 5.90106 28.1039 5.25301 29.2066 5.25301C29.4823 5.25301 29.7228 5.29691 29.865 5.32501V7.11288C29.714 7.05141 29.3769 7.00575 29.0029 7.00575C27.7668 7.00575 27.003 7.83294 27.003 9.15715V14.7596H25.0821V5.40405ZM36.8885 8.62325C36.6936 7.62746 35.9456 6.83539 34.6937 6.83539C33.2082 6.83539 32.2319 8.07179 32.2319 10.0809C32.2319 12.1358 33.2187 13.3265 34.713 13.3265C35.8947 13.3265 36.669 12.6767 36.8902 11.5931H38.7392C38.5337 13.5847 36.9429 14.937 34.6937 14.937C32.0177 14.937 30.2759 13.1052 30.2759 10.0827C30.2759 7.11288 32.0177 5.2372 34.6761 5.2372C37.0851 5.2372 38.5513 6.78446 38.7216 8.62501L36.8885 8.62325ZM39.726 12.1006C39.726 10.4638 40.9796 9.45923 43.2026 9.33453L45.7626 9.1835V8.46343C45.7626 7.42373 45.0603 6.80026 43.8874 6.80026C42.7759 6.80026 42.0823 7.33416 41.9138 8.17014H40.1C40.2071 6.48063 41.6469 5.23545 43.9576 5.23545C46.2244 5.23545 47.673 6.43496 47.673 8.3124V14.7596H45.8329V13.2211H45.789C45.2464 14.2608 44.0647 14.9194 42.8373 14.9194C41.006 14.9194 39.726 13.7814 39.726 12.1006ZM45.7626 11.2559V10.5182L43.4607 10.6605C42.3141 10.7413 41.6644 11.2471 41.6644 12.0479C41.6644 12.8664 42.3404 13.4003 43.3711 13.4003C44.7126 13.3985 45.7626 12.4747 45.7626 11.2559ZM49.0233 10.0827C49.0233 7.13044 50.5877 5.25476 52.9353 5.25476C54.2768 5.25476 55.3444 5.93092 55.8694 6.96184H55.9045V1.92843H57.8342V14.7596H55.9659V13.1684H55.9308C55.3795 14.2345 54.3137 14.9194 52.9529 14.9194C50.5877 14.9194 49.0233 13.0332 49.0233 10.0827ZM50.9881 10.0827C50.9881 12.0567 51.9397 13.2931 53.4603 13.2931C54.9352 13.2931 55.922 12.0392 55.922 10.0827C55.922 8.1438 54.9352 6.87227 53.4603 6.87227C51.9397 6.87227 50.9881 8.11745 50.9881 10.0827ZM67.653 12.0111C67.3861 13.7181 65.7689 14.937 63.6268 14.937C60.8806 14.937 59.2178 13.0789 59.2178 10.1266C59.2178 7.19191 60.9069 5.23545 63.5477 5.23545C66.1429 5.23545 67.7618 7.06721 67.7618 9.90356V10.5622H61.1563V10.6781C61.1563 12.3044 62.1343 13.3809 63.6724 13.3809C64.7663 13.3809 65.574 12.8295 65.8321 12.0111C65.8304 12.0111 67.653 12.0111 67.653 12.0111ZM61.1633 9.21862H65.8391C65.7952 7.78728 64.8875 6.7827 63.546 6.7827C62.2045 6.7827 61.2616 7.80484 61.1633 9.21862ZM7.72712 3.18063C8.20647 2.58 8.53306 1.77388 8.44703 0.950195C7.74468 0.98532 6.88782 1.41385 6.39091 2.01448C5.94492 2.52906 5.55161 3.36855 5.65345 4.15886C6.44183 4.22736 7.23021 3.76371 7.72712 3.18063ZM8.43825 4.31166C7.29342 4.24316 6.31892 4.96147 5.77285 4.96147C5.22502 4.96147 4.38747 4.34503 3.4832 4.36259C2.30502 4.38015 1.21112 5.04577 0.612367 6.10655C-0.618492 8.2281 0.287533 11.3753 1.48503 13.1017C2.06622 13.957 2.76681 14.8983 3.68864 14.8632C4.5613 14.8298 4.90194 14.2977 5.96248 14.2977C7.02127 14.2977 7.32854 14.8632 8.25213 14.8456C9.20907 14.8281 9.80782 13.9904 10.389 13.1351C11.0562 12.1603 11.3284 11.219 11.346 11.1681C11.3284 11.1505 9.50054 10.4498 9.48298 8.34576C9.46543 6.58425 10.9193 5.74651 10.986 5.69383C10.1643 4.48377 8.88248 4.34678 8.43825 4.31166Z" fill="black"/>
</svg>
