<svg width="78" height="14" viewBox="0 0 78 14" fill="none" xmlns="http://www.w3.org/2000/svg">
<path d="M13.6674 13.7509V1.06533H21.5885V2.76172H15.6364V6.77958H21.0867V8.44124H15.6364V13.7509H13.6674ZM22.9151 2.05851C22.9151 1.45253 23.4064 0.968096 24.0141 0.968096C24.6201 0.968096 25.1132 1.45253 25.1132 2.05851C25.1132 2.6558 24.6219 3.14892 24.0141 3.14892C23.4064 3.14892 22.9151 2.65754 22.9151 2.05851ZM23.0644 4.50325H24.9639V13.7509H23.0644V4.50325ZM29.6555 2.31375V4.50325H31.4126V6.00691H29.6555V11.1048C29.6555 11.9052 30.0062 12.2646 30.7806 12.2646C30.9733 12.2646 31.2824 12.2473 31.4039 12.2212V13.7249C31.1939 13.777 30.7719 13.8134 30.3483 13.8134C28.4765 13.8134 27.7455 13.1015 27.7455 11.3166V6.00691H26.3999V4.50325H27.7455V2.31375H29.6555ZM33.0066 4.50325H34.8176V6.05032H34.861C35.3628 4.99463 36.3473 4.34525 37.7711 4.34525C39.8112 4.34525 40.9798 5.64576 40.9798 7.76407V13.7509H39.0716V8.13391C39.0716 6.74485 38.4204 5.98087 37.1026 5.98087C35.7656 5.98087 34.9044 6.93064 34.9044 8.3631V13.7527H33.0048V4.50325H33.0066ZM50.5591 11.0336C50.2952 12.7213 48.696 13.9263 46.5777 13.9263C43.8621 13.9263 42.2178 12.0893 42.2178 9.1705C42.2178 6.2691 43.8881 4.33483 46.4996 4.33483C49.0658 4.33483 50.6667 6.14582 50.6667 8.94998V9.6011H44.1347V9.7157C44.1347 11.3235 45.1018 12.3879 46.6228 12.3879C47.7046 12.3879 48.505 11.8427 48.7585 11.0336H50.5591ZM44.1416 8.27455H48.7655C48.722 6.85945 47.8244 5.86627 46.4978 5.86627C45.1695 5.86627 44.2371 6.87681 44.1416 8.27455ZM55.5163 4.33657C57.6693 4.33657 59.0671 5.53289 59.1296 7.23797H57.3446C57.2387 6.34202 56.5807 5.77945 55.5163 5.77945C54.4884 5.77945 53.8025 6.28125 53.8025 7.01919C53.8025 7.59912 54.2245 7.995 55.2263 8.2242L56.73 8.56625C58.6208 9.00554 59.3414 9.74348 59.3414 11.0805C59.3414 12.7682 57.7683 13.928 55.5875 13.928C53.2747 13.928 51.8856 12.7942 51.7103 11.0353H53.5907C53.7661 12.0024 54.4259 12.4765 55.5857 12.4765C56.7282 12.4765 57.4315 12.0024 57.4315 11.2454C57.4315 10.6481 57.0894 10.2956 56.0771 10.0664L54.5735 9.7157C52.8146 9.31114 51.9447 8.46728 51.9447 7.12163C51.9481 5.47039 53.3893 4.33657 55.5163 4.33657ZM64.1041 4.33657C66.2572 4.33657 67.6549 5.53289 67.7175 7.23797H65.9325C65.8266 6.34202 65.1685 5.77945 64.1041 5.77945C63.0762 5.77945 62.3904 6.28125 62.3904 7.01919C62.3904 7.59912 62.8123 7.995 63.8142 8.2242L65.3178 8.56625C67.2087 9.00554 67.9293 9.74348 67.9293 11.0805C67.9293 12.7682 66.3562 13.928 64.1753 13.928C61.8626 13.928 60.4735 12.7942 60.2981 11.0353H62.1786C62.3539 12.0024 63.0137 12.4765 64.1736 12.4765C65.3161 12.4765 66.0193 12.0024 66.0193 11.2454C66.0193 10.6481 65.6773 10.2956 64.665 10.0664L63.1613 9.7157C61.4024 9.31114 60.5325 8.46728 60.5325 7.12163C60.5343 5.47039 61.9772 4.33657 64.1041 4.33657ZM74.3467 13.7631H72.6156V9.99525H69.0284V8.2815H72.6156V4.51541H74.3467V8.2815H77.9427V9.99525H74.3467V13.7631ZM7.63713 2.30507C8.11809 1.7234 8.44105 0.91427 8.3525 0.110352C7.66144 0.138133 6.82453 0.570478 6.32794 1.15215C5.88344 1.6661 5.49277 2.49085 5.59868 3.27914C6.36961 3.33818 7.1579 2.88674 7.63713 2.30507ZM8.33513 3.43194C7.20305 3.3486 6.24286 4.06396 5.70807 4.06396C5.1646 4.06396 4.32596 3.4493 3.4387 3.46667C2.27189 3.48403 1.1971 4.14557 0.594595 5.19084C-0.617359 7.29353 0.28553 10.4102 1.46623 12.117C2.04443 12.9505 2.73201 13.8916 3.63664 13.8568C4.50654 13.8221 4.83644 13.2943 5.88865 13.2943C6.94086 13.2943 7.23777 13.8568 8.15803 13.8412C9.09564 13.8238 9.68947 12.9904 10.2625 12.1518C10.9257 11.1846 11.1983 10.247 11.214 10.1967C11.1931 10.188 9.38735 9.49519 9.36998 7.41507C9.35435 5.67527 10.7903 4.8401 10.8545 4.79843C10.0385 3.59689 8.77963 3.46493 8.33513 3.43194Z" fill="black"/>
</svg>
