<svg width="59" height="14" viewBox="0 0 59 14" fill="none" xmlns="http://www.w3.org/2000/svg">
<path d="M24.7392 13.7617V4.40572H24.6783L20.8463 13.7617H19.3845L15.5403 4.40572H15.4794V13.7617H13.6817V1.04926H15.9632L20.0771 11.1795H20.1484L24.2537 1.04926H26.5438V13.7617H24.7392ZM36.4823 13.7617H34.6585V12.194H34.615C34.1034 13.3041 33.1619 13.9287 31.7436 13.9287C29.7267 13.9287 28.4929 12.6168 28.4929 10.4922V4.49272H30.3967V10.1216C30.3967 11.531 31.0667 12.2879 32.3788 12.2879C33.7536 12.2879 34.582 11.3361 34.582 9.89194V4.49272H36.4858L36.4823 13.7617ZM41.6978 4.32568C43.8557 4.32568 45.2566 5.52454 45.3192 7.23322H43.5303C43.4241 6.33538 42.7646 5.77162 41.6978 5.77162C40.6676 5.77162 39.9802 6.27448 39.9802 7.01398C39.9802 7.59514 40.4031 7.99186 41.4072 8.22154L42.9142 8.56432C44.8093 9.00454 45.5315 9.74404 45.5315 11.0838C45.5315 12.7751 43.9549 13.9374 41.7691 13.9374C39.4511 13.9374 38.059 12.8012 37.8832 11.0386H39.7696C39.9454 12.0078 40.6067 12.4828 41.7691 12.4828C42.9142 12.4828 43.619 12.0078 43.619 11.2491C43.619 10.6506 43.2762 10.2974 42.2616 10.0677L40.7546 9.7162C38.9917 9.31078 38.1199 8.46514 38.1199 7.11664C38.1199 5.4619 39.566 4.32568 41.6978 4.32568ZM46.8611 2.05324C46.8489 1.4425 47.3344 0.937898 47.9452 0.925718C48.5561 0.913538 49.0607 1.399 49.0729 2.00974C49.0851 2.62048 48.5996 3.12508 47.9888 3.13726C47.98 3.13726 47.9714 3.13726 47.9627 3.13726C47.3588 3.14074 46.8663 2.65702 46.8611 2.05324ZM47.0107 4.49272H48.9146V13.76H47.0107V4.49272ZM56.9475 7.68214C56.7543 6.69556 56.013 5.91082 54.7722 5.91082C53.3 5.91082 52.3324 7.13578 52.3324 9.12634C52.3324 11.1621 53.3104 12.3419 54.7913 12.3419C55.9625 12.3419 56.73 11.6981 56.9492 10.6245H58.7817C58.5781 12.5976 57.0014 13.9374 54.7722 13.9374C52.1201 13.9374 50.3938 12.1226 50.3938 9.12808C50.3938 6.18574 52.1201 4.32742 54.7548 4.32742C57.1424 4.32742 58.5955 5.86036 58.7643 7.68388L56.9475 7.68214ZM7.63787 2.28988C8.15298 1.67392 8.40879 0.882218 8.35136 0.0800781C7.5613 0.154898 6.83039 0.532478 6.31354 1.13452C5.87152 1.64434 5.48171 2.47606 5.58264 3.25906C6.36401 3.32692 7.14538 2.86756 7.63787 2.28988ZM8.34092 3.41044C7.20629 3.34258 6.24045 4.05424 5.69924 4.05424C5.15629 4.05424 4.32619 3.4435 3.42997 3.4609C2.24139 3.49048 1.15896 4.1482 0.584683 5.18872C-0.635224 7.29064 0.262739 10.4087 1.44958 12.1191C2.0256 12.9665 2.71995 13.8992 3.63358 13.8644C4.49848 13.8313 4.83608 13.3041 5.88719 13.3041C6.93655 13.3041 7.24109 13.8644 8.15646 13.847C9.10489 13.8296 9.69831 12.9996 10.2743 12.1522C10.6833 11.5519 11.0017 10.8959 11.2228 10.2034C11.2054 10.186 9.39377 9.49174 9.37636 7.40722C9.35896 5.662 10.7999 4.83202 10.866 4.77982C10.0533 3.58096 8.78294 3.44524 8.34092 3.41044Z" fill="black"/>
</svg>
