<svg width="15" height="44" viewBox="0 0 15 44" fill="none" xmlns="http://www.w3.org/2000/svg">
<path d="M13.5726 17.6828C13.0517 18.0017 12.6202 18.4475 12.3186 18.9786C12.0169 19.5096 11.8549 20.1086 11.8478 20.7193C11.8498 21.4066 12.0535 22.0783 12.4335 22.651C12.8135 23.2238 13.3532 23.6725 13.9857 23.9416C13.7363 24.7462 13.3672 25.5086 12.8909 26.2034C12.2093 27.1846 11.4966 28.1657 10.4122 28.1657C9.32777 28.1657 9.04887 27.5357 7.79917 27.5357C6.58047 27.5357 6.14667 28.1864 5.15517 28.1864C4.16367 28.1864 3.47177 27.2775 2.67647 26.1621C1.62594 24.5995 1.04858 22.767 1.01367 20.8845C1.01367 17.7861 3.02767 16.144 5.01057 16.144C6.06407 16.144 6.94197 16.8359 7.60297 16.8359C8.23297 16.8359 9.21417 16.1026 10.4122 16.1026C11.0281 16.0867 11.6386 16.2225 12.1897 16.4981C12.7408 16.7736 13.2157 17.1805 13.5726 17.6828ZM9.84417 14.791C10.3723 14.1697 10.6712 13.3861 10.6911 12.571C10.692 12.4635 10.6816 12.3563 10.6601 12.251C9.75293 12.3396 8.91408 12.772 8.31557 13.4594C7.78238 14.0559 7.47217 14.8186 7.43767 15.6179C7.43807 15.7151 7.44846 15.812 7.46867 15.9071C7.54019 15.9206 7.61279 15.9275 7.68557 15.9278C8.10365 15.8945 8.51059 15.7766 8.88167 15.5812C9.25275 15.3857 9.58022 15.1169 9.84417 14.791Z" fill="black" fill-opacity="0.8"/>
</svg>
