<svg width="12" height="12" viewBox="0 0 12 12" fill="none" xmlns="http://www.w3.org/2000/svg">
<path d="M2.99994 9.14969V2.86169C2.98455 2.7395 2.99545 2.61543 3.03192 2.4978C3.06839 2.38017 3.12958 2.2717 3.2114 2.17965C3.29322 2.0876 3.39377 2.01411 3.50632 1.9641C3.61886 1.91409 3.74079 1.88872 3.86394 1.88969C4.10004 1.87961 4.33324 1.94474 4.52994 2.07569L9.64794 5.07569C10.1039 5.33969 10.3499 5.55569 10.3499 5.98169C10.3499 6.40769 10.1039 6.62369 9.64794 6.88769L4.52994 9.88769C4.33324 10.0186 4.10004 10.0838 3.86394 10.0737C3.74473 10.0758 3.6264 10.0529 3.5166 10.0064C3.40681 9.95985 3.308 9.89082 3.22656 9.80373C3.14513 9.71664 3.08288 9.61342 3.04384 9.50076C3.0048 9.3881 2.98985 9.26849 2.99994 9.14969Z" fill="black"/>
</svg>
