<svg width="16" height="44" viewBox="0 0 16 44" fill="none" xmlns="http://www.w3.org/2000/svg">
<path d="M14.7982 27.2022L10.9282 23.3322C11.6292 22.4032 12.0502 21.2512 12.0502 20.0002C12.0502 16.9402 9.5612 14.4502 6.5002 14.4502C3.4402 14.4502 0.950195 16.9402 0.950195 20.0002C0.950195 23.0612 3.4402 25.5502 6.5002 25.5502C7.7512 25.5502 8.9032 25.1292 9.8322 24.4282L13.7022 28.2982C13.8532 28.4492 14.0522 28.5262 14.2502 28.5262C14.4482 28.5262 14.6462 28.4502 14.7982 28.2982C15.1012 27.9952 15.1012 27.5052 14.7982 27.2022ZM2.0502 20.0002C2.0502 17.5462 4.0472 15.5502 6.5002 15.5502C8.9542 15.5502 10.9502 17.5472 10.9502 20.0002C10.9502 22.4532 8.9542 24.4502 6.5002 24.4502C4.0462 24.4502 2.0502 22.4542 2.0502 20.0002Z" fill="black" fill-opacity="0.8"/>
</svg>
